<!--?xml version="1.0" encoding="utf-8"?-->
<!-- Generator: Adobe Illustrator 19.2.1, SVG Export Plug-In . SVG Version: 6.00 Build 0)  -->
<svg version="1.1" id="_x31_0" xmlns="http://www.w3.org/2000/svg" xmlns:xlink="http://www.w3.org/1999/xlink" x="0px" y="0px" viewBox="0 0 512 512" style="width: 256px; height: 256px; opacity: 1;" xml:space="preserve">
<style type="text/css">
	.st0{fill:#374149;}
</style>
<g>
	<path class="st0" d="M444.082,441.39l-0.027-0.683c-0.102-1.094-0.207-2.191-0.524-3.778l-18.847-74
		c-2.047-8.058-9.282-13.687-17.602-13.687h-38.848L298.394,15.18C296.547,6.242,288.894,0,279.782,0h-47.562
		c-9.028,0-16.703,6.199-18.68,15.164l-69.774,334.078h-38.847c-8.321,0-15.555,5.629-17.594,13.679l-18.968,74.496
		c-0.106,0.578-0.18,1.149-0.266,1.723l-0.25,54.625C67.84,503.82,76.016,512,86.07,512h339.863c4.887,0,9.606-2,12.848-5.379
		c3.414-3.418,5.378-8.105,5.378-12.863L444.082,441.39z M115.703,377.871h29.328v0.148l-0.082,0.313l-0.074,0.39l-0.465,2.946
		l-3.34,19.238l19.008,4.578c29.867,7.294,61.984,11.02,95.418,11.02h1.008c33.434,0,65.473-3.726,95.422-11.02l19.004-4.578
		l-3.336-19.238l-0.465-2.946l-0.078-0.39l-0.078-0.313v-0.148h29.324c1.551,0,2.871,1.082,3.258,2.558l14.507,56.859
		c0.543,2.176-1.09,4.27-3.258,4.27h-309.61c-2.168,0-3.797-2.094-3.258-4.27l14.508-56.859
		C112.832,378.953,114.153,377.871,115.703,377.871z M328.649,320.149c-23.118,4.426-47.555,6.75-72.688,6.75
		c-24.801,0-48.832-2.282-71.675-6.594c-0.309-0.058-0.626-0.098-0.934-0.16l14.273-68.493c18.93,2.719,38.477,4.188,58.336,4.188
		c19.938,0,39.485-1.469,58.34-4.188l14.102,67.305L328.649,320.149z M98.871,456.84h56.317c1.246,0,1.398,3.566,0.238,4.187
		l-56.324,27.078c-0.617,0.309-1.316-0.703-1.316-2.02v-27.152C97.786,457.77,98.25,456.84,98.871,456.84z M298.145,173.844
		c-24.754,2.43-57.191,2.461-82.34,0.137c-0.539-0.059-1.121-0.098-1.652-0.157l17.14-82.598h49.57l15.555,74.29L298.145,173.844z" style="fill: rgb(79, 79, 79);"></path>
</g>
</svg>
