<!--?xml version="1.0" encoding="utf-8"?-->
<!-- Generator: Adobe Illustrator 18.1.1, SVG Export Plug-In . SVG Version: 6.00 Build 0)  -->

<svg version="1.1" id="_x31_0" xmlns="http://www.w3.org/2000/svg" xmlns:xlink="http://www.w3.org/1999/xlink" x="0px" y="0px" viewBox="0 0 512 512" style="width: 256px; height: 256px; opacity: 1;" xml:space="preserve">
<style type="text/css">
	.st0{fill:#374149;}
</style>
<g>
	<path class="st0" d="M502.074,142.836L369.164,10.027L359.34,0H152.863L10.027,142.836L0,152.66v206.68l9.922,9.824L152.863,512
		H359.34l9.824-9.926l132.809-132.91L512,359.34V152.66L502.074,142.836z M166.778,478.031L33.969,345.222V166.778L166.778,33.969
		h178.441l132.914,132.809v178.445L345.218,478.031H166.778z" style="fill: rgb(79, 79, 79);"></path>
	<path class="st0" d="M277.969,272.91c0.313,1.785,0.778,3.179,1.242,4.266c0.621,1.011,1.242,2.019,2.015,2.949
		c1.321,1.394,2.871,2.481,4.734,3.414c1.786,0.851,3.879,1.316,6.203,1.316c1.477,0,2.871-0.156,4.191-0.542
		c0.774-0.23,1.395-0.465,2.094-0.774c1.706-0.934,3.258-2.02,4.5-3.414c0.773-0.93,1.472-1.938,1.937-2.949
		c0.622-1.086,1.008-2.481,1.321-4.266c0.386-1.786,0.543-3.958,0.774-6.668c0.156-2.641,0.234-6.129,0.234-10.242
		c0-4.11-0.078-7.523-0.234-10.238c-0.23-2.714-0.387-4.886-0.774-6.75c-0.313-1.786-0.699-3.258-1.321-4.266
		c-0.465-1.086-1.164-2.094-1.937-3.024c-1.242-1.398-2.794-2.406-4.5-3.336c-0.699-0.312-1.321-0.542-2.094-0.699
		c-1.32-0.386-2.714-0.542-4.191-0.542c-2.324,0-4.418,0.465-6.203,1.242c-1.863,0.93-3.414,1.938-4.734,3.336
		c-0.774,0.93-1.394,1.938-2.015,3.024c-0.465,1.007-0.93,2.48-1.242,4.266c-0.309,1.863-0.543,4.035-0.621,6.75
		c-0.153,2.715-0.231,6.129-0.231,10.238c0,4.114,0.078,7.602,0.231,10.242C277.426,268.953,277.66,271.125,277.969,272.91z" style="fill: rgb(79, 79, 79);"></path>
	<path class="st0" d="M373.844,227.922h-15.746V251.5h15.746c3.878,0,6.984-1.086,9.156-3.18c2.246-2.171,3.332-5.042,3.332-8.531
		c0-3.57-1.086-6.438-3.332-8.609C380.828,229.008,377.722,227.922,373.844,227.922z" style="fill: rgb(79, 79, 79);"></path>
	<path class="st0" d="M177.621,60.058L60.058,177.625v156.75l117.562,117.562h156.856l117.461-117.562v-156.75L334.477,60.058
		H177.621z M402.418,250.578c-1.332,3.374-3.277,6.546-5.835,9.004c-2.454,2.66-5.727,4.706-9.41,6.136
		c-3.684,1.434-7.879,2.254-12.485,2.254H359.34v32.434h-19.442v-88.813h34.789c4.606,0,8.801,0.715,12.485,2.25
		c3.683,1.434,6.957,3.48,9.41,6.039c2.558,2.558,4.503,5.625,5.835,9.003c1.329,3.477,1.942,7.059,1.942,10.95
		C404.359,243.621,403.746,247.199,402.418,250.578z M228.168,229.191v71.215h-19.34V229.57l0.004-0.219h-0.004v-0.16H186.32
		v-17.598h64.462v17.598H228.168z M259.172,244.848c0.203-3.379,0.511-6.551,0.918-9.414c0.618-2.863,1.535-5.523,2.766-7.981
		c1.227-2.453,2.965-4.91,5.219-7.164c3.066-2.965,6.546-5.32,10.434-6.957c3.886-1.637,8.492-2.457,13.609-2.457
		c1.535,0,2.966,0.106,4.196,0.207c3.582,0.308,6.648,1.125,9.414,2.25c3.887,1.637,7.262,3.992,10.434,6.957
		c2.254,2.254,3.992,4.711,5.219,7.164c1.226,2.458,2.148,5.118,2.66,7.981c0.511,2.863,0.922,6.035,1.125,9.414
		c0.106,3.273,0.106,7.058,0.106,11.152c0,4.195,0,7.879-0.106,11.254c-0.203,3.379-0.614,6.551-1.125,9.313
		c-0.512,2.863-1.434,5.523-2.66,8.082c-1.227,2.355-2.965,4.706-5.219,7.058c-3.172,2.969-6.546,5.324-10.434,6.961
		c-2.766,1.125-5.832,1.942-9.414,2.25c-1.23,0.102-2.661,0.203-4.196,0.203c-5.117,0-9.722-0.816-13.609-2.453
		c-3.887-1.637-7.367-3.992-10.434-6.961c-2.254-2.352-3.992-4.703-5.219-7.058c-1.23-2.559-2.148-5.219-2.766-8.184
		c-0.406-2.766-0.714-5.832-0.918-9.211c0-3.374-0.106-7.058-0.106-11.254C259.066,251.906,259.172,248.121,259.172,244.848z
		 M266.195,90.586l-80.382,46.27l-76.016,43.586l79.898-89.992h41.137L266.195,90.586z M169.746,294.062
		c-2.969,2.25-6.551,4.094-10.645,5.321c-3.988,1.125-8.386,1.738-12.992,1.738c-6.653,0-12.688-0.816-17.906-2.558
		c-5.32-1.637-10.23-4.805-14.527-9.207l-0.821-0.922l12.688-12.687l0.82,0.922c2.656,2.558,5.625,4.402,8.898,5.422
		c3.481,1.024,7.164,1.535,10.95,1.535c4.808,0,8.39-0.922,10.742-2.554c2.254-1.641,3.379-3.89,3.379-6.961
		c0-2.762-0.718-4.809-2.25-6.344c-0.719-0.614-1.641-1.125-2.458-1.535c-1.023-0.305-2.558-0.714-4.606-1.023l-10.332-1.535
		c-3.992-0.61-7.367-1.43-10.129-2.66c-2.766-1.227-5.218-2.863-7.266-4.809c-4.402-4.195-6.55-10.23-6.55-17.906
		c0-3.988,0.718-7.774,2.148-11.046c1.434-3.379,3.481-6.344,6.242-8.7c2.66-2.457,6.039-4.297,9.926-5.625
		c3.786-1.434,8.188-2.05,12.992-2.05c6.039,0,11.462,0.82,16.066,2.355c4.606,1.637,8.902,4.297,12.688,8.082l0.922,0.82
		l-11.949,11.851l-0.539,0.524l-0.813-0.918c-2.558-2.351-5.218-3.886-8.187-4.5c-3.07-0.714-5.934-1.023-8.695-1.023
		c-4.094,0-7.164,0.922-9.11,2.863c-1.942,1.844-2.863,4.094-2.863,6.758c0,1.02,0.203,1.942,0.512,2.863
		c0.304,0.918,0.82,1.637,1.534,2.454c0.817,0.617,1.738,1.332,2.864,1.742c1.125,0.511,2.558,0.918,4.297,1.125l10.336,1.637
		c4.094,0.511,7.469,1.43,10.129,2.457c2.762,1.125,5.117,2.66,7.058,4.703c2.457,2.149,4.301,4.914,5.426,8.187
		c1.125,3.172,1.637,6.856,1.637,10.844c0,4.402-0.82,8.289-2.558,11.668C175.066,288.844,172.711,291.707,169.746,294.062z" style="fill: rgb(79, 79, 79);"></path>
</g>
</svg>
